<svg width="209.95mm" height="269.9mm" version="1.1" viewBox="0 0 209.95 269.9" xml:space="preserve" xmlns="http://www.w3.org/2000/svg"><g transform="translate(0 -.076)"><path d="m50.678 243.81-50.678-79.292 0.049805-0.0446 55.471 26.687-40.53-67.787 42.63 15.818-27.69-56.917 34.202 14.595-19.261-55.695 28.647 13.884-13.706-54.983 45.187 24.664 45.187-24.664-13.706 54.983 28.646-13.884-19.26 55.618 34.202-14.519-27.69 56.932 42.63-15.832-40.53 67.786 55.471-26.687-50.63 79.266-54.349 26.235zm137.09-59.747-73.783 35.558 39.061 18.803zm-42.913 11.78-39.857-19.209-39.857 19.209 39.857 19.208zm-49.34-23.731-13.803-6.701 11.576-4.2951-59.266-21.991 29.074 48.66zm41.999-27.406-32.516-12.065-32.516 12.065 32.516 12.065zm25.439-46.271-47.577 20.303 12.602 5.376-11.271 4.182 26.873 9.971zm-27.666 2.948-30.289-12.925-30.288 12.925 30.288 12.926zm-40.668-17.354-9.794-4.179 10.716-5.0645-36.565-17.721 12.71 36.751zm31.644-23.763-21.265-10.051-20.736 10.051 20.736 10.05zm11.506-44.133-24.269 13.247 16.219 8.3228-14.853 7.9852 13.804 6.9476z" stroke-width=".07817"/></g></svg>
